<?xml version="1.0" encoding="UTF-8"?>
<svg id="Layer_1" xmlns="http://www.w3.org/2000/svg" version="1.1" viewBox="0 0 31.45 31.5">
  <!-- Generator: Adobe Illustrator 29.4.0, SVG Export Plug-In . SVG Version: 2.1.0 Build 152)  -->
  <defs>
    <style>
      .st0 {
        fill: none;
      }
    </style>
  </defs>
  <g>
    <path d="M21.3,22.22c-2.16,1.58-5.31,2.46-5.59,2.54h0c.24-.12,2.83-1.38,3.99-2.51.55-.54.99-1.33,1.28-1.99-.14.12-.24.34-1.6,1.07-1.29.69-3.45,1.46-3.67,1.54h0c.19-.11,1.73-.96,2.66-2.02.56-.63,1.01-1.19,1.24-1.75-1.1.87-3.66,1.82-3.9,1.91h0c.15-.09,1.1-.69,1.89-1.6.57-.67.63-1.1.72-1.45-1.2.95-2.44,1.14-2.61,1.16h0c.15-.11,1.19-.85,1.24-2.31-.95.87-1.76.56-2.15.22-.38-.34-.37-1.07-.37-1.07V5.93h-1.27v.93h-1.69v-.93h-1.27v.93h-1.69v-.93h-1.28v11.51s.02,3.27,3.02,5.74c2.1,1.73,5.46,3.37,5.46,3.37.28-.14,3.45-1.71,4.83-2.93.99-.88,1.46-1.46,1.79-2.21-.29.27-.64.54-1.03.82Z"/>
    <g>
      <path d="M19.65,14.98V6.89h-1.16v9.65s.04.69-.16,1.43c1.53-.99,1.33-2.98,1.33-2.98Z"/>
      <path d="M21.13,15.93V5.93h-1.16v11.44s.04.79-.34,1.72c1.5-1.22,1.51-3.16,1.51-3.16Z"/>
      <path d="M22.61,16.58V6.89h-1.16v11.14s-.1,1.53-.46,2.23c1.64-1.05,1.62-3.68,1.62-3.68Z"/>
      <path d="M24.1,17.37V5.93h-1.17v13.08s-.06,1.18-.59,2.38c1.83-1.76,1.76-4.03,1.76-4.03Z"/>
      <path d="M18.16,14.27V5.93h-1.16v9.84s0,.74-.04,1.02c1.35-1.16,1.2-2.53,1.2-2.53Z"/>
    </g>
  </g>
  <rect class="st0" x="-31.5" y="-31.5" width="294.28" height="94.5"/>
</svg>